<svg xmlns="http://www.w3.org/2000/svg" viewBox="70 20 1440 780" role="img" aria-labelledby="title"><title id="title">Publi Carga</title><path fill="#EAAA42" fill-rule="evenodd" d="M777 47 807 47 824 49 870 61 899 75 934 100 960 127 982 159 994 185 1002 210 1008 247 1007 292 1003 313 995 339 982 368 954 407 925 434 902 450 885 459 843 474 799 480 756 477 718 467 687 453 648 425 618 392 602 367 593 349 583 320 576 280 578 230 588 190 604 156 629 121 661 91 698 68 739 53ZM780 31 727 40 695 52 661 71 623 104 597 137 588 152 574 183 564 218 562 233 561 281 564 309 579 356 601 396 623 423 640 439 662 456 682 468 722 485 764 494 812 495 852 488 874 481 902 468 933 448 952 432 968 415 995 377 1014 332 1024 285 1024 243 1018 208 1003 166 981 128 949 92 915 66 889 52 866 43 817 32Z"/><path fill="#FFFFFF" fill-rule="evenodd" d="M439 707 445 702 481 703 484 706 484 725 477 729 442 728 439 724ZM442 620 468 620 471 623 472 649 469 652 442 652 440 650 439 625ZM143 620 168 620 172 623 172 649 169 652 143 652 140 649 140 623ZM564 579 551 594 545 608 544 616 545 778 720 778 722 772 721 572 719 570 694 571 685 576 679 582 672 594 672 724 667 729 597 728 595 726 594 573 590 570 582 571ZM391 570 389 572 389 777 393 779 485 779 497 777 513 770 526 757 533 741 534 696 528 678 519 667 522 637 521 611 512 590 502 580 484 571ZM230 570 228 574 228 727 229 739 237 757 250 770 268 778 326 779 343 775 352 770 367 754 372 742 374 731 373 571 324 571 323 726 321 728 282 728 278 723 279 574 276 570ZM92 570 90 572 90 777 93 779 136 779 140 777 140 706 144 702 167 703 189 700 202 693 211 684 219 671 222 661 222 612 217 597 209 586 195 575 184 571Z"/><path fill="#FF8717" fill-rule="evenodd" d="M1403 631 1410 623 1432 621 1441 629 1442 639 1439 646 1435 649 1412 649 1404 642ZM1087 622 1097 621 1103 623 1107 627 1108 645 1105 648 1088 649 1084 646 1081 634 1083 626ZM926 624 931 621 958 623 962 633 960 644 955 647 927 648 923 642 923 631ZM863 616 866 624 865 647 867 715 865 719 865 728 862 730 852 725 798 725 792 723 787 715 786 648 787 629 792 622 801 620 846 622ZM1351 570 1347 576 1348 647 1346 663 1348 723 1347 771 1349 775 1357 781 1379 780 1383 782 1393 782 1401 776 1404 760 1404 713 1409 706 1414 704 1439 706 1443 711 1442 767 1446 776 1454 780 1487 780 1496 778 1499 772 1497 750 1499 611 1498 605 1485 583 1471 572 1446 566 1359 566ZM1208 572 1200 578 1187 597 1184 604 1182 618 1182 720 1184 738 1188 751 1200 768 1218 778 1226 780 1287 781 1305 777 1319 771 1325 766 1332 756 1339 740 1341 707 1340 676 1342 666 1338 653 1326 649 1262 649 1257 651 1253 660 1253 690 1255 700 1261 705 1275 705 1280 707 1283 710 1284 715 1282 720 1275 725 1258 724 1249 726 1242 721 1238 713 1237 627 1239 624 1245 622 1331 621 1337 617 1338 604 1336 597 1332 590 1315 574 1296 567 1235 566 1224 567ZM747 579 735 599 731 611 731 733 736 751 742 761 752 771 768 778 780 780 847 781 857 778 863 772 872 778 881 780 913 780 919 776 922 768 923 756 921 731 923 726 923 710 928 705 946 704 958 707 961 712 962 746 960 770 963 776 972 780 988 780 997 782 1015 777 1018 771 1017 609 1014 596 993 573 981 568 967 566 875 566 864 573 850 566 780 566 760 570 753 573ZM1032 566 1027 573 1025 612 1025 771 1028 777 1037 781 1073 780 1080 775 1082 766 1082 712 1087 706 1093 704 1098 707 1123 759 1125 771 1130 776 1145 781 1178 779 1181 776 1179 757 1163 726 1160 713 1151 693 1153 684 1161 670 1164 660 1163 609 1154 588 1138 572 1123 567ZM869 113 857 113 847 120 833 125 826 132 781 164 738 208 735 214 728 220 712 241 709 249 712 255 760 262 769 266 773 272 764 288 752 301 749 308 740 319 734 335 722 357 715 378 712 402 714 419 718 425 722 424 726 419 731 407 751 378 755 367 762 361 773 345 791 325 831 291 856 277 872 271 885 261 885 257 865 242 857 240 833 226 806 218 800 213 801 205 815 183 822 177 828 167 844 150 852 138 861 130 870 117Z"/></svg>